{"title":"Bad Actress.2011. DVDRip.XviD.AC3-GBR","uid":7112262,"size":1026910220,"categoryP":"video","categoryS":"movies","magnet":"?xt=urn:btih:746f6ff2bc4c7237233c5e9a0b365250e2efd442&amp;dn=Bad+Actress.2011.+DVDRip.XviD.AC3-GBR&amp;tr=udp%3A%2F%2Ftracker.openbittorrent.com%3A80&amp;tr=udp%3A%2F%2Fopen.demonii.com%3A1337&amp;tr=udp%3A%2F%2Ftracker.coppersurfer.tk%3A6969&amp;tr=udp%3A%2F%2Fexodus.desync.com%3A6969","seeders":0,"leechers":1,"uploader":"TvTeam","files":4,"time":1332105087,"description":". \n &lt;a href=&quot;\nhttp://www.torrenting.com&quot; rel=&quot;nofollow&quot; target=&quot;_NEW&quot;&gt;\nhttp://www.torrenting.com&lt;/a&gt;          :     Once &amp; For all ;)\n\n\n               www . Torrenting . Com \n\n(((((((((((((= Enjoy No RAR releases =))))))))))))))))))))\n\n\n...................................NFO:....................................\n\n.[IMG]http://i1134.photobucket.com/albums/m620/chevyman781/7bb7yEYa.jpg[/IMG]\n\n &lt;a href=&quot;\nhttp://www.imdb.com/title/tt1326188/&quot; rel=&quot;nofollow&quot; target=&quot;_NEW&quot;&gt;\nhttp://www.imdb.com/title/tt1326188/&lt;/a&gt;\n\n\n\nGeneral\nComplete name                            : C:UsersrootDesktopBad Actress.2011. DVDRip.XviD.AC3-GBR.avi\nFormat                                   : AVI\nFormat/Info                              : Audio Video Interleave\nFile size                                : 979 MiB\nDuration                                 : 1h 26mn\nOverall bit rate                         : 1 592 Kbps\nWriting application                      : VirtualDubMod 1.5.10.2 (build 2540/release)\nWriting library                          : VirtualDubMod build 2540/release\n\nVideo\nID                                       : 0\nFormat                                   : MPEG-4 Visual\nFormat profile                           : Advanced Simple@L5\nFormat settings, BVOP                    : 1\nFormat settings, QPel                    : No\nFormat settings, GMC                     : No warppoints\nFormat settings, Matrix                  : Default (H.263)\nMuxing mode                              : Packed bitstream\nCodec ID                                 : XVID\nCodec ID/Hint                            : XviD\nDuration                                 : 1h 26mn\nBit rate                                 : 1 198 Kbps\nWidth                                    : 720 pixels\nHeight                                   : 400 pixels\nDisplay aspect ratio                     : 16:9\nFrame rate                               : 23.976 fps\nColor space                              : YUV\nChroma subsampling                       : 4:2:0\nBit depth                                : 8 bits\nScan type                                : Progressive\nCompression mode                         : Lossy\nBits/(Pixel*Frame)                       : 0.174\nStream size                              : 737 MiB (75%)\nWriting library                          : XviD 1.2.1 (UTC 2008-12-04)\n\nAudio\nID                                       : 1\nFormat                                   : AC-3\nFormat/Info                              : Audio Coding 3\nMode extension                           : CM (complete main)\nCodec ID                                 : 2000\nDuration                                 : 1h 26mn\nBit rate mode                            : Constant\nBit rate                                 : 384 Kbps\nChannel(s)                               : 6 channels\nChannel positions                        : Front: L C R, Side: L R, LFE\nSampling rate                            : 48.0 KHz\nBit depth                                : 16 bits\nCompression mode                         : Lossy\nStream size                              : 236 MiB (24%)\nAlignment                                : Split accross interleaves\nInterleave, duration                     : 42 ms (1.00 video frame)\nInterleave, preload duration             : 500 ms\n\nSource Bad Actress 2011 NTSC DVDR-TDP-thanks\n\n\n[IMG]http://i.imgur.com/fUfeW.png[/IMG]\n[IMG]http://i.imgur.com/6cMch.png[/IMG]\n[IMG]http://i.imgur.com/GMMbe.png[/IMG]\n[IMG]http://i.imgur.com/e1ITO.png[/IMG]","torrent":{"xt":"urn:btih:746f6ff2bc4c7237233c5e9a0b365250e2efd442","amp;dn":"Bad+Actress.2011.+DVDRip.XviD.AC3-GBR","amp;tr":["udp%3A%2F%2Ftracker.openbittorrent.com%3A80","udp%3A%2F%2Fopen.demonii.com%3A1337","udp%3A%2F%2Ftracker.coppersurfer.tk%3A6969","udp%3A%2F%2Fexodus.desync.com%3A6969"],"infoHash":"746f6ff2bc4c7237233c5e9a0b365250e2efd442","infoHashBuffer":{"type":"Buffer","data":[116,111,111,242,188,76,114,55,35,60,94,154,11,54,82,80,226,239,212,66]},"announce":[],"urlList":[]}}